<svg xmlns="http://www.w3.org/2000/svg" height="32" width="32" viewBox="0 0 32 32">
  <g stroke-linecap="square" stroke-width="2" fill="none" stroke="currentColor" stroke-linejoin="miter" class="nc-icon-wrapper" stroke-miterlimit="10"><polyline points=" 9,31 4,31 4,13 9,13 "/> <polyline points=" 23,31 28,31 28,13 23,13 "/> <line x1="14" y1="12" x2="18" y2="12"/> <line x1="14" y1="16" x2="18" y2="16"/> <line x1="14" y1="20" x2="18" y2="20"/> <line x1="14" y1="24" x2="18" y2="24"/> <line x1="16" y1="31" x2="16" y2="28"/> <line x1="16" y1="3" x2="16" y2="1"/> <path data-cap="butt" d="M20,8.3V7c0-1.1-0.4-2.1-1.2-2.8 C18.1,3.4,17.1,3,16,3c-2.2,0-4,1.8-4,4v1.3" stroke-linecap="butt"/> <path d="M16,7L16,7 c-3.9,0-7,3.1-7,7v17h14V14C23,10.1,19.9,7,16,7z"/></g>
</svg>