<svg xmlns="http://www.w3.org/2000/svg" height="32" width="32" viewBox="0 0 32 32">
  <g stroke-linecap="square" stroke-width="2" fill="none" stroke="currentColor" stroke-linejoin="miter" class="nc-icon-wrapper" stroke-miterlimit="10"><path data-cap="butt" d="M1.5,27c0,2.2,1.8,4,4,4 C7,31,8.3,30.1,9,28.9c0.7,1.2,2,2.1,3.5,2.1c1.5,0,2.8-0.9,3.5-2.1c0.7,1.2,2,2.1,3.5,2.1c1.5,0,2.8-0.9,3.5-2.1 c0.7,1.2,2,2.1,3.5,2.1c2.2,0,4-1.8,4-4" stroke-linecap="butt" stroke="currentColor"/> <line data-cap="butt" x1="16" y1="21" x2="16" y2="13" stroke-linecap="butt"/> <line data-cap="butt" x1="11" y1="21" x2="11" y2="12" stroke-linecap="butt"/> <line data-cap="butt" x1="21" y1="21" x2="21" y2="12" stroke-linecap="butt"/> <polyline points="5,23 5,1 1,1 1,23 "/> <polyline points="31,23 31,1 27,1 27,23 "/> <line x1="5" y1="21" x2="27" y2="21"/> <path d="M5,2c0,6.1,4.9,11,11,11 c6.1,0,11-4.9,11-11"/></g>
</svg>